<svg id="Capa_1" enable-background="new 0 0 512 512" height="512" viewBox="0 0 512 512" width="512" xmlns="http://www.w3.org/2000/svg"><g><g><path d="m279.255 238.635v-31.243c0-14.902 1.365-28.351-12.373-34.124l-13.619-16.025-18.496-7.772-21.295-4.62c-5.888-2.474-9.718-8.238-9.718-14.625v-15.768l-35.017-.393v16.161c0 6.387-3.83 12.151-9.718 14.625l-21.294 4.619-32.116 13.496c-13.739 5.773-22.675 19.222-22.675 34.125v42.565z" fill="#918291"/></g><g><path d="m289.553 238.631v-41.537c0-14.907-8.932-28.361-22.674-34.13l-17.475-7.344c7.672 6.108 9.243 13.927 9.243 20.87v62.14h30.906z" fill="#7a6d79"/></g><path d="m234.768 149.469c-12.846 11.59-29.865 18.636-48.522 18.636-18.656 0-35.675-7.046-48.521-18.626l10.992-4.625c5.893-2.483 9.715-8.242 9.715-14.629v-31.534h55.619v31.534c0 6.387 3.832 12.146 9.725 14.629z" fill="#f6a96c"/><path d="m186.246 119.672c-5.554 0-10.891 1.188-15.865-.521-19.174-6.585-32.954-24.775-32.954-46.183v-24.15c0-21.408 13.78-39.598 32.954-46.183 4.974-1.708 10.311.537 15.864.537 26.962 0 45.646 18.684 45.646 45.646l1.058 24.15c0 26.963-19.742 46.704-46.703 46.704z" fill="#fed2a4"/><path d="m186.246 0c-5.555 0-10.888.941-15.864 2.65 19.172 6.587 32.955 24.762 32.955 46.168v24.15c0 21.406-13.784 39.582-32.955 46.168 4.976 1.709 10.308 2.65 15.864 2.65 26.962 0 48.819-21.857 48.819-48.819v-24.15c-.001-26.96-21.858-48.817-48.819-48.817z" fill="#ffbd86"/><path d="m388.91 224.305c-4.381 0-7.932-3.551-7.932-7.932v-50.83c0-8.558-3.333-16.604-9.385-22.655l-21.972-21.881c-3.104-3.091-3.115-8.113-.024-11.217 3.091-3.105 8.112-3.114 11.217-.024l21.984 21.892c9.06 9.06 14.043 21.09 14.043 33.885v50.83c.001 4.381-3.55 7.932-7.931 7.932z" fill="#f2fbff"/><path d="m369.12 105.531c0 14.182-9.382 23.565-23.565 23.565-3.771 0-7.352 1.302-10.578-.158-8.906-4.031-15.102-12.995-15.102-23.407 0-10.411 6.196-19.375 15.101-23.407 3.226-1.46 6.807-.158 10.578-.158 14.184.001 23.566 9.383 23.566 23.565z" fill="#fe99a0"/><path d="m371.233 105.53c0 14.182-11.496 25.678-25.678 25.678-3.765 0-7.35-.814-10.576-2.274 8.905-4.029 15.102-12.998 15.102-23.404s-6.197-19.375-15.102-23.404c3.226-1.459 6.811-2.274 10.576-2.274 14.182 0 25.678 11.496 25.678 25.678z" fill="#fd8087"/><path d="m423.108 512h-44.959l-129.961-21.152-114.338 21.152h-76.689c-8.761 0-15.864-7.102-15.864-15.864v-239.18h397.674v239.18c.001 8.762-7.102 15.864-15.863 15.864z" fill="#fee97d"/><path d="m470.698 256.954v239.182c0 8.757-7.096 15.864-15.864 15.864h-42.303c8.767 0 15.864-7.107 15.864-15.864v-239.182z" fill="#fedf30"/><path d="m342.879 512h-209.029v-262.808h244.299z" fill="#f2fbff"/><path d="m342.879 249.192h35.27v262.808h-35.27z" fill="#dff6fd"/><path d="m175.367 471.425c-8.661-8.661-8.16-22.851 1.091-30.879l66.489-57.699 20.997 20.997-57.699 66.489c-8.028 9.252-22.217 9.753-30.878 1.092z" fill="#e19974"/><path d="m221.605 350.092h92.538v57.65h-92.538z" fill="#fee97d" transform="matrix(.707 .707 -.707 .707 346.394 -78.434)"/><path d="m287.836 452.407-15.813-15.813c-2.011-2.011-2.011-5.273 0-7.284l46.244-46.244c2.012-2.012 5.273-2.012 7.284 0l15.813 15.813c2.012 2.011 2.012 5.273 0 7.284l-46.244 46.244c-2.011 2.011-5.273 2.012-7.284 0z" fill="#e19974"/><path d="m210.197 374.769-15.813-15.813c-2.011-2.012-2.011-5.273 0-7.285l46.244-46.244c2.012-2.012 5.273-2.012 7.285 0l15.813 15.813c2.012 2.012 2.012 5.273 0 7.285l-46.244 46.244c-2.012 2.011-5.273 2.011-7.285 0z" fill="#e19974"/><path d="m408.998 239.142h-63.443v-18.102c0-11.379 9.225-20.604 20.604-20.604h22.236c11.379 0 20.604 9.225 20.604 20.604v18.102z" fill="#918291"/><path d="m432.266 221.589v17.556h-31.727v-17.556c0-11.686-9.476-21.152-21.151-21.152h31.727c11.675 0 21.151 9.466 21.151 21.152z" fill="#7a6d79"/><path d="m468.807 272.108c5.985 0 10.836-4.852 10.836-10.836v-19.727c0-5.985-4.852-10.836-10.836-10.836h-457.343c-5.985 0-10.836 4.852-10.836 10.836v19.727c0 5.985 4.852 10.836 10.836 10.836z" fill="#e19974"/><path d="m511.372 241.546v19.724c0 5.986-4.854 10.84-10.84 10.84h-42.303c5.986 0 10.84-4.854 10.84-10.84v-19.724c0-5.986-4.854-10.84-10.84-10.84h42.303c5.986-.001 10.84 4.854 10.84 10.84z" fill="#dc8758"/></g></svg>